<svg xmlns="http://www.w3.org/2000/svg" xmlns:xlink="http://www.w3.org/1999/xlink" width="500" zoomAndPan="magnify" viewBox="0 0 375 149.999998" height="200" preserveAspectRatio="xMidYMid meet" version="1.0"><defs><g/><clipPath id="055eea34d2"><path d="M 10 1.921875 L 103 1.921875 L 103 148.199219 L 10 148.199219 Z M 10 1.921875 " clip-rule="nonzero"/></clipPath></defs><g fill="#1b0000" fill-opacity="1"><g transform="translate(124.109117, 60.575223)"><g><path d="M 24.726562 0 L 40.976562 -39.21875 L 31.324219 -39.21875 L 20.691406 -12.015625 L 20.546875 -11.988281 L 9.914062 -39.21875 L 0.289062 -39.21875 L 16.511719 0 Z M 24.726562 0 "/></g></g></g><g fill="#1b0000" fill-opacity="1"><g transform="translate(171.267247, 60.575223)"><g><path d="M 22.824219 0.894531 C 34.550781 0.894531 44.121094 -8.269531 44.121094 -19.652344 C 44.121094 -31.066406 34.550781 -40.171875 22.824219 -40.171875 C 11.035156 -40.171875 1.5 -31.066406 1.5 -19.652344 C 1.5 -8.269531 11.035156 0.894531 22.824219 0.894531 Z M 22.824219 -7.464844 C 16.078125 -7.464844 10.632812 -12.5625 10.632812 -19.625 C 10.632812 -26.714844 16.023438 -31.8125 22.824219 -31.8125 C 29.59375 -31.8125 35.011719 -26.714844 35.011719 -19.625 C 35.011719 -12.5625 29.59375 -7.464844 22.824219 -7.464844 Z M 22.824219 -7.464844 "/></g></g></g><g fill="#1b0000" fill-opacity="1"><g transform="translate(222.804514, 60.575223)"><g><path d="M 22.449219 0.894531 C 30.777344 0.894531 40.171875 -4.035156 41.84375 -15.445312 L 32.507812 -15.445312 C 31.152344 -9.710938 27.03125 -7.464844 22.1875 -7.464844 C 15.847656 -7.464844 10.632812 -11.84375 10.632812 -19.625 C 10.632812 -27.203125 15.847656 -31.8125 22.1875 -31.8125 C 27.058594 -31.8125 31.152344 -29.539062 32.535156 -23.804688 L 41.84375 -23.804688 C 40.171875 -35.242188 30.691406 -40.171875 22.449219 -40.171875 C 10.835938 -40.171875 1.5 -31.066406 1.5 -19.652344 C 1.5 -8.269531 10.835938 0.894531 22.449219 0.894531 Z M 22.449219 0.894531 "/></g></g></g><g fill="#1b0000" fill-opacity="1"><g transform="translate(272.065782, 60.575223)"><g><path d="M 40.863281 0 L 24.78125 -39.21875 L 16.222656 -39.21875 L 0.144531 0 L 9.796875 0 L 12.332031 -6.367188 L 28.671875 -6.367188 L 31.210938 0 Z M 20.199219 -26.195312 L 20.460938 -27.40625 L 20.546875 -27.40625 L 20.804688 -26.195312 L 25.675781 -13.949219 L 15.332031 -13.949219 Z M 20.199219 -26.195312 "/></g></g></g><g fill="#1b0000" fill-opacity="1"><g transform="translate(318.964621, 60.575223)"><g><path d="M 23.113281 0 C 29.59375 0 36.308594 -3.3125 36.308594 -11.671875 C 36.308594 -15.9375 33.109375 -19.453125 29.363281 -20.777344 C 31.902344 -21.816406 34.121094 -25.011719 34.121094 -28.296875 C 34.121094 -35.214844 29.164062 -39.191406 21.46875 -39.191406 L 4.003906 -39.191406 L 4.003906 0 Z M 13.257812 -31.382812 L 21.035156 -31.382812 C 23.285156 -31.382812 24.925781 -29.738281 24.925781 -27.464844 C 24.925781 -25.128906 23.285156 -23.429688 21.007812 -23.429688 L 13.257812 -23.429688 Z M 13.257812 -16.683594 L 22.277344 -16.683594 C 25.011719 -16.683594 26.972656 -14.753906 26.972656 -12.390625 C 26.972656 -9.566406 25.011719 -7.808594 22.277344 -7.808594 L 13.257812 -7.808594 Z M 13.257812 -16.683594 "/></g></g></g><g fill="#1b0000" fill-opacity="1"><g transform="translate(124.109117, 119.30465)"><g><path d="M 13.140625 0 L 13.140625 -15.820312 L 30.257812 -15.820312 L 30.257812 0 L 39.421875 0 L 39.421875 -39.191406 L 30.257812 -39.191406 L 30.257812 -23.917969 L 13.140625 -23.917969 L 13.140625 -39.191406 L 4.003906 -39.191406 L 4.003906 0 Z M 13.140625 0 "/></g></g></g><g fill="#1b0000" fill-opacity="1"><g transform="translate(173.428014, 119.30465)"><g><path d="M 20.632812 0.894531 C 31.035156 0.894531 37.835938 -5.820312 37.835938 -15.128906 L 37.835938 -39.191406 L 28.703125 -39.191406 L 28.703125 -15.792969 C 28.703125 -11.007812 25.792969 -7.378906 20.632812 -7.378906 C 15.359375 -7.378906 12.507812 -11.035156 12.507812 -15.792969 L 12.507812 -39.191406 L 3.402344 -39.191406 L 3.402344 -15.128906 C 3.402344 -5.246094 10.894531 0.894531 20.632812 0.894531 Z M 20.632812 0.894531 "/></g></g></g><g fill="#1b0000" fill-opacity="1"><g transform="translate(220.557341, 119.30465)"><g><path d="M 23.113281 0 C 29.59375 0 36.308594 -3.3125 36.308594 -11.671875 C 36.308594 -15.9375 33.109375 -19.453125 29.363281 -20.777344 C 31.902344 -21.816406 34.121094 -25.011719 34.121094 -28.296875 C 34.121094 -35.214844 29.164062 -39.191406 21.46875 -39.191406 L 4.003906 -39.191406 L 4.003906 0 Z M 13.257812 -31.382812 L 21.035156 -31.382812 C 23.285156 -31.382812 24.925781 -29.738281 24.925781 -27.464844 C 24.925781 -25.128906 23.285156 -23.429688 21.007812 -23.429688 L 13.257812 -23.429688 Z M 13.257812 -16.683594 L 22.277344 -16.683594 C 25.011719 -16.683594 26.972656 -14.753906 26.972656 -12.390625 C 26.972656 -9.566406 25.011719 -7.808594 22.277344 -7.808594 L 13.257812 -7.808594 Z M 13.257812 -16.683594 "/></g></g></g><g clip-path="url(#055eea34d2)"><path fill="#e92026" d="M 58.019531 1.910156 C 57.597656 1.902344 57.164062 1.894531 56.730469 1.894531 C 56.296875 1.894531 55.867188 1.902344 55.4375 1.910156 C 21.25 2.785156 0.125 39.863281 16.015625 70.273438 L 28.238281 93.664062 L 56.730469 148.199219 L 66.75 129.011719 C 62.65625 121.367188 58.546875 113.726562 54.445312 106.082031 C 48.175781 94.40625 41.910156 82.730469 35.644531 71.0625 C 32.460938 65.132812 29.425781 59.085938 28.59375 52.308594 C 26.589844 35.953125 40.480469 21.394531 56.617188 21.332031 C 72.441406 21.269531 85.28125 34.125 85.28125 49.992188 C 85.28125 65.824219 72.492188 78.65625 56.730469 78.65625 C 56.207031 78.65625 55.695312 78.640625 55.175781 78.617188 L 74.179688 114.808594 L 85.230469 93.664062 L 97.4375 70.273438 C 113.335938 39.863281 92.210938 2.785156 58.019531 1.910156 " fill-opacity="1" fill-rule="nonzero"/></g></svg>